<?xml version="1.0" encoding="utf-8"?>
<!-- Generator: Adobe Illustrator 23.0.3, SVG Export Plug-In . SVG Version: 6.00 Build 0)  -->
<svg version="1.1" id="svg" xmlns="http://www.w3.org/2000/svg" xmlns:xlink="http://www.w3.org/1999/xlink" x="0px" y="0px"
	 viewBox="0 0 400 389.5" style="enable-background:new 0 0 400 389.5;" xml:space="preserve">
<style type="text/css">
	.st0{fill-rule:evenodd;clip-rule:evenodd;fill:#FBFBFB;}
</style>
<g id="svgg">
	<path id="path0" class="st0" d="M257,50.8l-78.4,0V80c0,32.8-0.1,31.6,1.8,31.6c0.7,0,2,0.3,2.7,0.6c0.8,0.3,1.9,0.6,2.4,0.6
		c0.6,0,1.4,0.2,1.8,0.5s1.4,0.6,2.2,0.8c0.8,0.1,1.9,0.5,2.5,0.8c0.6,0.3,1.5,0.6,1.9,0.6c0.5,0,1,0.3,1.3,0.6
		c0.3,0.3,0.8,0.6,1.2,0.6c0.7,0,3.7,1.2,5.5,2.2c0.6,0.3,1.3,0.6,1.6,0.6c0.3,0,0.8,0.3,1,0.6c0.3,0.3,1,0.7,1.6,0.8
		c0.6,0.1,1.1,0.4,1.1,0.6c0,0.2,0.2,0.4,0.4,0.4c0.5,0,2,0.7,3.3,1.6c0.6,0.4,1.6,0.9,2,1.1c0.5,0.2,1.6,0.9,2.5,1.5
		c2.3,1.5,3.1,2,4.1,2.5c0.5,0.3,0.9,0.6,0.9,0.8c0,0.2,0.2,0.3,0.4,0.3c0.5,0,3.5,2,3.5,2.4c0,0.2,0.2,0.3,0.4,0.3
		c0.4,0,4,2.8,7.2,5.5c4.1,3.5,11.8,11.2,13.9,14c0.7,0.9,1.4,1.6,1.5,1.6c0.2,0,0.3,0.3,0.3,0.6c0,0.3,0.1,0.6,0.3,0.6
		c0.2,0,0.8,0.7,1.5,1.6c0.6,0.9,1.4,1.9,1.7,2.3c0.3,0.4,0.8,1.1,1.2,1.6c0.3,0.5,1.1,1.6,1.8,2.5c1.4,1.9,1.5,2.1,4.5,7.3
		c1.3,2.3,2.5,4.4,2.7,4.7c0.2,0.3,0.5,0.8,0.6,1.2c0.1,0.3,0.4,0.8,0.6,1.2c0.2,0.3,0.5,0.9,0.7,1.4c0.6,1.4,2.8,6.2,3.4,7.4
		c0.3,0.6,0.7,1.7,0.8,2.3c0.1,0.6,0.4,1.4,0.6,1.6c0.2,0.3,0.5,1.1,0.7,1.8c0.5,1.8,1.5,5.1,1.9,5.8c0.2,0.3,0.4,1.4,0.6,2.3
		c0.2,0.9,0.5,2.3,0.8,3c0.3,0.7,0.5,2,0.6,2.8c0,0.8,0.3,1.9,0.6,2.4c0.3,0.5,0.6,1.6,0.6,2.3c0,3.3,1.3,8.6,2.1,8.8
		c0.4,0.1,13.9,0.1,29.8,0.1l29-0.1l0.1-83.9l0.1-83.9L257,50.8 M252.1,219.6c-0.3-1.2-0.5-2.9-0.5-3.8c0-0.9-0.3-2.4-0.6-3.3
		c-0.3-0.9-0.6-2.5-0.8-3.6c-0.1-1.1-0.4-2.1-0.6-2.4c-0.2-0.2-0.5-1.2-0.6-2.2c-0.1-1-0.5-2.1-0.8-2.5c-0.3-0.4-0.5-1.2-0.5-1.8
		s-0.2-1.3-0.5-1.8c-0.3-0.4-0.6-1.3-0.8-1.9c-0.5-2.3-7.2-15.8-8.7-17.4c-0.3-0.3-0.5-0.7-0.5-0.9c0-0.7-6.8-9.7-9.9-13.1
		c-6.2-6.7-14.9-14.2-19.9-17.2c-0.9-0.5-1.6-1-1.8-1.2c-0.1-0.1-0.6-0.4-1.2-0.7c-2.2-1.1-3.3-1.8-3.5-2c-0.3-0.4-6-3.2-6.5-3.2
		c-0.2,0-0.7-0.3-0.9-0.6c-0.3-0.3-0.8-0.6-1.1-0.6c-0.4,0-1.3-0.4-2.1-0.8c-0.8-0.4-1.8-0.8-2.2-0.8c-0.4,0-0.9-0.2-1-0.3
		c-0.2-0.3-3.2-1.3-8.4-2.8c-4.5-1.3-6-1.6-9.6-2.2c-1.9-0.3-4.4-0.7-5.5-0.9c-2.4-0.5-21.1-0.5-23.8,0c-1.1,0.2-3.4,0.5-5.1,0.8
		c-1.7,0.3-3.8,0.7-4.6,1c-0.8,0.3-2,0.5-2.6,0.5c-0.6,0-1.8,0.2-2.6,0.5c-0.8,0.3-2.7,0.9-4.2,1.4c-4.9,1.5-7.9,2.7-13.8,5.6
		c-6.2,3-6.8,3.4-7,3.8c-0.1,0.2-0.3,0.3-0.6,0.3c-0.8,0-9.6,6.3-13.5,9.6c-4,3.4-11.3,10.9-13.6,14c-1.6,2.1-3.7,5.1-5,7
		c-0.8,1.3-1.6,2.4-1.7,2.5c-0.1,0.1-0.4,0.6-0.7,1.2c-1.1,2.2-1.8,3.3-2,3.5c-0.1,0.1-0.7,1.1-1.2,2.1c-0.5,1.1-1.1,2.2-1.3,2.5
		c-0.2,0.3-0.4,0.8-0.6,1.2c-0.1,0.3-0.5,1.1-0.8,1.8c-1.5,3.3-2.1,4.9-2.1,5.4c0,0.3-0.3,0.9-0.6,1.3c-0.3,0.4-0.6,1.2-0.6,1.7
		c0,0.5-0.3,1.3-0.5,1.8c-0.3,0.4-0.7,1.6-0.8,2.5c-0.2,1-0.5,2.2-0.8,2.8c-0.3,0.6-0.5,1.6-0.5,2.2s-0.3,1.9-0.6,2.8
		c-0.3,0.9-0.6,2.4-0.6,3.3c0,0.9-0.3,2.7-0.6,3.9c-0.9,3.4-0.9,23.5,0,26.9c0.4,1.3,0.6,3.1,0.6,3.9c0,0.9,0.3,2.4,0.6,3.3
		c0.3,0.9,0.6,2.2,0.6,2.9c0,0.7,0.2,1.7,0.5,2.3c0.3,0.6,0.7,1.8,0.8,2.7c0.2,0.9,0.5,2,0.8,2.5c0.3,0.4,0.5,1.2,0.5,1.8
		c0,0.6,0.3,1.3,0.6,1.8c0.3,0.4,0.6,1,0.6,1.3c0,1.6,7.4,16.5,8.9,17.9c0.3,0.3,0.5,0.7,0.5,1c0,0.3,0.3,0.6,0.6,0.7
		c0.3,0.1,0.6,0.5,0.6,0.8s0.4,0.9,0.8,1.2c0.4,0.4,0.8,0.9,0.8,1.1c0,0.2,0.2,0.6,0.5,0.9c1.2,1.3,1.7,2,2.5,3.1
		c2.2,3,3.3,4.2,8.1,9c4.9,4.9,6.2,6.1,9.1,8.2c0.7,0.5,1.4,1.1,1.6,1.3c0.1,0.2,1,0.8,2,1.5c1,0.6,1.8,1.3,2,1.4
		c0.1,0.1,1,0.7,2.1,1.4c1,0.6,2.4,1.4,2.9,1.8c0.6,0.4,1.5,0.9,2.1,1.1c0.6,0.2,1.1,0.6,1.1,0.8c0,0.2,0.2,0.4,0.4,0.4
		c0.4,0,3.4,1.4,5,2.3c1.5,0.9,4.2,2,4.8,2c0.3,0,0.8,0.3,1.1,0.6c0.3,0.3,0.8,0.6,1.3,0.6c0.4,0,1.3,0.2,2,0.5
		c0.7,0.3,2.5,0.9,4.2,1.4c1.6,0.5,3.7,1.1,4.7,1.4c1,0.3,2.2,0.6,2.8,0.6c0.6,0,1.7,0.2,2.5,0.6c0.8,0.3,3.2,0.7,5.4,1
		c2.1,0.2,4.9,0.6,6,0.8c2.8,0.5,14.4,0.5,17.2,0c1.2-0.2,3.9-0.5,6-0.8c2.1-0.2,4.2-0.6,4.6-0.8c0.4-0.2,1.5-0.5,2.5-0.6
		c1-0.1,2.6-0.5,3.6-0.7c1-0.3,3.1-0.9,4.7-1.4c1.6-0.5,3.4-1.1,4-1.4c0.6-0.3,1.3-0.6,1.6-0.6c0.3,0,1.1-0.2,1.7-0.5
		c2.7-1.4,4.7-2.2,5.3-2.2c0.4,0,0.6-0.1,0.6-0.3c0-0.2,0.9-0.7,2-1.2c1.8-0.8,6-3.2,9.1-5.1c10.8-6.7,21.5-17.2,29.6-28.7
		c0.8-1.1,1.4-2.1,1.4-2.2s0.5-0.9,1.1-1.9c0.6-0.9,1.6-2.6,2.2-3.6c0.6-1.1,1.2-2.2,1.4-2.5c0.5-0.8,2.4-5.1,3.5-7.8
		c0.5-1.2,1.2-2.9,1.6-3.8c0.4-0.9,0.7-2.1,0.7-2.5c0-0.5,0.2-1.2,0.5-1.6c0.3-0.4,0.6-1.5,0.8-2.5c0.1-1,0.4-1.9,0.6-2.2
		c0.2-0.2,0.5-1.5,0.7-2.7c0.2-1.3,0.5-3.1,0.8-4.1c1.1-4.9,1.4-8.3,1.4-18.7C252.6,224.9,252.5,221.1,252.1,219.6"/>
</g>
</svg>
