<?xml version="1.0" encoding="utf-8"?>
<!-- Generator: Adobe Illustrator 21.0.2, SVG Export Plug-In . SVG Version: 6.00 Build 0)  -->
<svg version="1.1" id="Ebene_1" xmlns="http://www.w3.org/2000/svg" xmlns:xlink="http://www.w3.org/1999/xlink" x="0px" y="0px"
	 viewBox="0 0 18 18" style="enable-background:new 0 0 18 18;" xml:space="preserve">
<style type="text/css">
	.st0{fill:#FFFFFF;}
</style>
<title>Zeichenfläche 14</title>
<path class="st0" d="M10.2,8.6c-0.5,0-0.8-0.4-0.8-0.8c0,0,0,0,0,0c0-2.3,0-4.7,0-7C9.4,0.4,9.7,0,10.1,0c0,0,0.1,0,0.1,0h7
	c0.1,0,0.3,0,0.4,0.1C17.9,0.2,18,0.6,18,0.9c0,2.3,0,4.6,0,6.8c0,0.5-0.3,0.9-0.8,0.9c0,0-0.1,0-0.1,0c-1.1,0-2.3,0-3.4,0
	S11.4,8.6,10.2,8.6z M16.2,7c0.2,0,0.2-0.1,0.2-0.2c0-0.4,0-0.8,0-1.2c0-1.3,0-2.5,0-3.8c0-0.2,0-0.3-0.3-0.3h-4.9
	C11,1.6,11,1.7,11,1.8c0,1.6,0,3.3,0,4.9C11,7,11.1,7,11.2,7H16.2L16.2,7z"/>
<path class="st0" d="M4.2,0C3.1,0,2,0,0.9,0C0.4,0,0,0.3,0,0.8c0,0,0,0.1,0,0.1c0,1.8,0,3.5,0,5.3c0,0.4,0.2,0.7,0.6,0.8
	c0.3,0.1,0.7,0,0.9-0.3c0.1-0.1,0.1-0.3,0.1-0.5c0-1.2,0-2.3,0-3.5c0-0.2,0-0.5,0-0.7s0.1-0.2,0.3-0.2h5.7c0.3,0,0.6-0.1,0.7-0.3
	c0.2-0.2,0.3-0.6,0.2-0.9C8.3,0.2,8,0,7.7,0H4.2z"/>
<path class="st0" d="M13.2,13.2h-1.9c-0.3,0-0.7,0.2-0.8,0.5c-0.1,0.3,0,0.7,0.2,0.9c0.1,0.1,0.3,0.2,0.5,0.2c0.9,0,1.9,0,2.8,0
	c0.4,0,0.8-0.3,0.8-0.8c0-0.7,0-1.4,0-2.1h2.3c0.4,0.1,0.9-0.3,0.9-0.7c0-0.1,0-0.2,0-0.3c-0.1-0.3-0.3-0.6-0.7-0.6
	c-1.1,0-2.3,0-3.4,0c-0.4,0-0.7,0.4-0.7,0.8c0,0.6,0,1.2,0,1.8L13.2,13.2z"/>
<path class="st0" d="M14.3,18c1,0,1.9,0,2.9,0c0.5,0,0.8-0.3,0.9-0.8c0,0,0,0,0-0.1c0-0.9,0-1.7,0-2.6c0-0.4-0.3-0.8-0.7-0.8
	c0,0,0,0-0.1,0c-0.4,0-0.8,0.3-0.8,0.7c0,0,0,0.1,0,0.1c0,0.5,0,1.1,0,1.6c0,0.2,0,0.3-0.2,0.3h-4.9c-0.4,0-0.7,0.2-0.8,0.6
	c-0.1,0.4,0,0.8,0.4,1c0.1,0.1,0.3,0.1,0.4,0.1L14.3,18z"/>
<path class="st0" d="M5.1,5.6H7c0.5,0,0.8-0.3,0.9-0.8c0,0,0-0.1,0-0.1C7.8,4.3,7.5,4,7.1,4H4.3C3.9,4,3.5,4.3,3.5,4.7c0,0,0,0,0,0
	c0,0.9,0,1.9,0,2.8c0,0.4,0.4,0.8,0.8,0.8c0.4,0,0.8-0.4,0.8-0.8c0-0.5,0-1.1,0-1.6C5.1,5.8,5.1,5.7,5.1,5.6z"/>
<path class="st0" d="M10.9,10.3c-0.4,0-0.8,0.3-0.8,0.8c0,0,0,0,0,0c0,0.4,0.4,0.8,0.8,0.8c0.4,0,0.8-0.4,0.8-0.8c0,0,0,0,0,0
	C11.7,10.7,11.4,10.3,10.9,10.3C10.9,10.3,10.9,10.3,10.9,10.3z"/>
<path class="st0" d="M12.5,4.3c0,0.2,0,0.4,0,0.6c0,0.3,0.2,0.5,0.5,0.5c0,0,0,0,0,0h1.2c0.3,0,0.5-0.2,0.5-0.5c0,0,0,0,0,0
	c0-0.4,0-0.8,0-1.2c0-0.3-0.2-0.5-0.5-0.5c0,0,0,0,0,0h-1.2c-0.3,0-0.5,0.2-0.5,0.5c0,0,0,0,0,0c0,0.1,0,0.2,0,0.3
	S12.5,4.2,12.5,4.3z"/>
<path class="st0" d="M4.3,14.8h0.6c0.3,0,0.5-0.2,0.5-0.5c0,0,0,0,0,0c0-0.4,0-0.8,0-1.2c0-0.3-0.2-0.5-0.5-0.5H3.7
	c-0.3,0-0.5,0.2-0.5,0.5c0,0,0,0,0,0c0,0.4,0,0.8,0,1.2c0,0.3,0.2,0.5,0.5,0.5c0,0,0,0,0,0L4.3,14.8z"/>
<path class="st0" d="M0.8,18C0.4,18,0,17.6,0,17.2c0,0,0,0,0,0c0-2.3,0-4.7,0-7c0-0.4,0.3-0.8,0.7-0.8c0,0,0.1,0,0.1,0h7
	c0.1,0,0.3,0,0.4,0.1c0.3,0.1,0.4,0.5,0.4,0.8c0,2.3,0,4.6,0,6.8c0,0.5-0.3,0.9-0.8,0.9c0,0-0.1,0-0.1,0c-1.1,0-2.3,0-3.4,0
	S2,18,0.8,18z M6.8,16.4c0.2,0,0.2-0.1,0.2-0.2c0-0.4,0-0.8,0-1.1c0-1.3,0-2.5,0-3.8C7,11.1,7,11,6.7,11H1.8c-0.2,0-0.3,0.1-0.3,0.2
	c0,1.6,0,3.3,0,4.9c0,0.2,0.1,0.3,0.3,0.3H6.8L6.8,16.4z"/>
</svg>
