<svg id="svg" version="1.1" width="400" height="389.54248366013076" viewBox="0 0 400 389.54248366013076" xmlns="http://www.w3.org/2000/svg" xmlns:xlink="http://www.w3.org/1999/xlink" ><g id="svgg"><path id="path0" d="M51.462 128.264 L 51.462 206.628 80.653 206.628 C 113.413 206.628,112.281 206.693,112.281 204.812 C 112.281 204.081,112.544 202.854,112.865 202.084 C 113.187 201.314,113.450 200.219,113.450 199.649 C 113.450 199.080,113.689 198.268,113.980 197.845 C 114.271 197.422,114.628 196.426,114.774 195.631 C 114.920 194.835,115.294 193.695,115.607 193.096 C 115.919 192.498,116.176 191.635,116.177 191.178 C 116.178 190.722,116.442 190.130,116.764 189.864 C 117.086 189.597,117.349 189.071,117.349 188.696 C 117.349 187.988,118.528 184.981,119.513 183.176 C 119.824 182.607,120.078 181.882,120.078 181.567 C 120.078 181.251,120.330 180.783,120.638 180.528 C 120.946 180.272,121.310 179.549,121.448 178.920 C 121.586 178.292,121.861 177.778,122.058 177.778 C 122.256 177.778,122.417 177.614,122.417 177.413 C 122.417 176.874,123.105 175.401,123.977 174.074 C 124.399 173.431,124.915 172.518,125.124 172.046 C 125.332 171.574,125.989 170.434,126.583 169.512 C 128.043 167.249,128.540 166.435,129.092 165.400 C 129.349 164.917,129.707 164.522,129.887 164.522 C 130.067 164.522,130.214 164.363,130.214 164.168 C 130.214 163.629,132.257 160.624,132.623 160.624 C 132.799 160.624,132.943 160.439,132.943 160.213 C 132.943 159.847,135.724 156.183,138.393 153.031 C 141.887 148.907,149.573 141.244,152.384 139.084 C 153.270 138.403,153.996 137.707,153.996 137.538 C 153.996 137.370,154.259 137.232,154.581 137.232 C 154.903 137.232,155.166 137.090,155.166 136.917 C 155.166 136.744,155.873 136.086,156.738 135.455 C 157.603 134.824,158.639 134.045,159.041 133.723 C 159.443 133.402,160.159 132.875,160.632 132.554 C 161.106 132.232,162.223 131.442,163.116 130.799 C 165.061 129.397,165.178 129.325,170.370 126.310 C 172.622 125.003,174.727 123.767,175.049 123.563 C 175.370 123.359,175.897 123.093,176.218 122.971 C 176.540 122.850,177.066 122.588,177.388 122.388 C 177.710 122.189,178.324 121.871,178.752 121.683 C 180.110 121.086,184.943 118.889,186.160 118.317 C 186.803 118.014,187.856 117.648,188.499 117.504 C 189.142 117.359,189.883 117.073,190.145 116.867 C 190.407 116.661,191.196 116.344,191.899 116.163 C 193.722 115.693,196.970 114.617,197.676 114.249 C 198.006 114.077,199.040 113.807,199.975 113.649 C 200.910 113.491,202.257 113.119,202.969 112.821 C 203.681 112.524,204.927 112.274,205.738 112.267 C 206.549 112.259,207.651 112.002,208.187 111.696 C 208.723 111.389,209.770 111.133,210.513 111.125 C 213.797 111.091,219.126 109.791,219.323 108.976 C 219.428 108.542,219.465 95.117,219.406 79.142 L 219.298 50.097 135.380 49.999 L 51.462 49.901 51.462 128.264 M220.273 133.146 C 219.094 133.422,217.389 133.665,216.485 133.686 C 215.582 133.706,214.090 133.967,213.172 134.265 C 212.253 134.563,210.641 134.914,209.591 135.045 C 208.540 135.176,207.479 135.451,207.232 135.656 C 206.986 135.861,206.003 136.149,205.049 136.298 C 204.095 136.446,202.968 136.805,202.545 137.095 C 202.122 137.385,201.328 137.622,200.780 137.622 C 200.232 137.622,199.438 137.859,199.015 138.148 C 198.592 138.438,197.719 138.797,197.076 138.947 C 194.738 139.490,181.296 146.185,179.696 147.603 C 179.358 147.903,178.961 148.148,178.815 148.148 C 178.084 148.148,169.123 154.958,165.764 158.066 C 159.051 164.279,151.523 172.977,148.537 177.973 C 148.024 178.830,147.504 179.620,147.381 179.727 C 147.258 179.834,146.933 180.361,146.659 180.897 C 145.549 183.068,144.897 184.221,144.675 184.405 C 144.285 184.730,141.517 190.416,141.519 190.888 C 141.520 191.130,141.257 191.546,140.936 191.813 C 140.614 192.080,140.351 192.586,140.351 192.939 C 140.351 193.291,140.000 194.233,139.571 195.034 C 139.142 195.834,138.791 196.830,138.791 197.247 C 138.791 197.664,138.639 198.099,138.453 198.214 C 138.126 198.416,137.135 201.413,135.673 206.628 C 134.408 211.138,134.075 212.610,133.513 216.179 C 133.209 218.109,132.791 220.565,132.585 221.637 C 132.120 224.055,132.098 242.759,132.557 245.419 C 132.742 246.491,133.101 248.772,133.355 250.487 C 133.610 252.203,134.060 254.268,134.355 255.076 C 134.651 255.885,134.893 257.065,134.893 257.700 C 134.893 258.334,135.137 259.515,135.436 260.323 C 135.734 261.132,136.358 263.021,136.822 264.522 C 138.343 269.441,139.554 272.402,142.461 278.314 C 145.501 284.494,145.861 285.158,146.259 285.315 C 146.440 285.387,146.589 285.637,146.589 285.871 C 146.589 286.715,152.844 295.495,156.218 299.387 C 159.658 303.356,167.150 310.639,170.176 312.957 C 172.263 314.555,175.273 316.695,177.193 317.944 C 178.480 318.781,179.620 319.564,179.727 319.683 C 179.834 319.802,180.361 320.123,180.897 320.397 C 183.059 321.503,184.220 322.159,184.405 322.380 C 184.513 322.508,185.478 323.033,186.550 323.547 C 187.622 324.061,188.762 324.632,189.084 324.816 C 189.405 325.001,189.932 325.249,190.253 325.368 C 190.575 325.488,191.365 325.827,192.008 326.122 C 195.276 327.620,196.889 328.265,197.370 328.265 C 197.662 328.265,198.242 328.523,198.658 328.838 C 199.075 329.152,199.859 329.415,200.401 329.422 C 200.943 329.429,201.732 329.676,202.155 329.971 C 202.578 330.265,203.713 330.637,204.678 330.796 C 205.643 330.956,206.906 331.329,207.486 331.625 C 208.065 331.921,209.051 332.164,209.678 332.164 C 210.305 332.164,211.564 332.427,212.476 332.749 C 213.387 333.070,214.864 333.333,215.757 333.333 C 216.649 333.333,218.426 333.622,219.704 333.976 C 223.110 334.918,243.167 334.918,246.573 333.976 C 247.851 333.622,249.627 333.333,250.520 333.333 C 251.413 333.333,252.890 333.070,253.801 332.749 C 254.713 332.427,256.007 332.163,256.677 332.161 C 257.347 332.160,258.363 331.915,258.935 331.616 C 259.507 331.318,260.735 330.946,261.664 330.790 C 262.593 330.634,263.699 330.265,264.122 329.971 C 264.545 329.676,265.345 329.435,265.899 329.435 C 266.454 329.435,267.248 329.177,267.664 328.862 C 268.081 328.547,268.658 328.284,268.947 328.278 C 270.512 328.241,285.406 320.882,286.870 319.422 C 287.153 319.140,287.617 318.908,287.900 318.908 C 288.184 318.908,288.517 318.645,288.640 318.324 C 288.763 318.002,289.106 317.739,289.401 317.739 C 289.696 317.739,290.255 317.388,290.643 316.959 C 291.031 316.530,291.510 316.179,291.706 316.179 C 291.903 316.179,292.308 315.960,292.607 315.692 C 293.912 314.522,294.569 313.981,295.688 313.156 C 298.710 310.930,299.936 309.826,304.678 305.063 C 309.564 300.157,310.758 298.824,312.862 295.931 C 313.398 295.193,313.970 294.492,314.132 294.371 C 314.294 294.251,314.952 293.363,315.595 292.398 C 316.237 291.433,316.865 290.556,316.992 290.448 C 317.118 290.341,317.733 289.405,318.357 288.367 C 318.982 287.330,319.800 286.014,320.174 285.443 C 320.549 284.872,321.049 283.923,321.285 283.333 C 321.521 282.744,321.872 282.261,322.065 282.261 C 322.259 282.261,322.417 282.075,322.417 281.847 C 322.417 281.483,323.813 278.434,324.726 276.803 C 325.577 275.285,326.706 272.564,326.706 272.032 C 326.706 271.707,326.969 271.222,327.290 270.955 C 327.612 270.688,327.875 270.123,327.875 269.699 C 327.875 269.275,328.120 268.376,328.419 267.700 C 328.719 267.025,329.347 265.156,329.815 263.548 C 330.284 261.940,330.917 259.834,331.222 258.869 C 331.528 257.904,331.777 256.636,331.776 256.051 C 331.775 255.465,332.024 254.325,332.329 253.517 C 332.635 252.708,333.078 250.292,333.314 248.148 C 333.550 246.004,333.901 243.285,334.094 242.105 C 334.549 239.331,334.549 227.725,334.094 224.951 C 333.901 223.772,333.554 221.053,333.324 218.908 C 333.093 216.764,332.734 214.699,332.525 214.319 C 332.317 213.939,332.048 212.799,331.927 211.785 C 331.807 210.771,331.474 209.152,331.187 208.187 C 330.901 207.222,330.288 205.117,329.826 203.509 C 329.364 201.901,328.736 200.119,328.430 199.550 C 328.125 198.981,327.875 198.249,327.875 197.925 C 327.875 197.600,327.629 196.837,327.328 196.230 C 325.964 193.481,325.146 191.481,325.146 190.893 C 325.146 190.541,325.014 190.253,324.852 190.253 C 324.689 190.253,324.137 189.332,323.624 188.207 C 322.816 186.434,320.409 182.161,318.519 179.142 C 311.784 168.389,301.342 157.649,289.770 149.574 C 288.647 148.790,287.647 148.148,287.548 148.148 C 287.449 148.148,286.614 147.643,285.692 147.026 C 284.770 146.408,283.138 145.434,282.066 144.860 C 280.994 144.287,279.854 143.657,279.532 143.461 C 278.750 142.985,274.395 141.037,271.735 139.975 C 270.556 139.504,268.840 138.782,267.923 138.370 C 267.006 137.959,265.861 137.622,265.378 137.622 C 264.896 137.622,264.155 137.385,263.732 137.095 C 263.309 136.805,262.182 136.446,261.228 136.298 C 260.274 136.149,259.292 135.862,259.047 135.658 C 258.802 135.455,257.565 135.122,256.299 134.920 C 255.032 134.717,253.207 134.374,252.242 134.158 C 247.326 133.059,243.925 132.798,233.528 132.724 C 225.589 132.667,221.805 132.788,220.273 133.146 " stroke="none" fill="#fbfbfb" fill-rule="evenodd"></path></g></svg>